<mxfile host="Electron" modified="2023-09-16T17:54:18.639Z" agent="Mozilla/5.0 (Windows NT 10.0; Win64; x64) AppleWebKit/537.36 (KHTML, like Gecko) draw.io/21.6.1 Chrome/112.0.5615.204 Electron/24.6.1 Safari/537.36" etag="Rnc29ly0u23qirWyvQ0T" version="21.6.1" type="device">
  <diagram id="C5RBs43oDa-KdzZeNtuy" name="Page-1">
    <mxGraphModel dx="2288" dy="765" grid="1" gridSize="10" guides="1" tooltips="1" connect="1" arrows="1" fold="1" page="1" pageScale="1" pageWidth="827" pageHeight="1169" math="0" shadow="0">
      <root>
        <mxCell id="WIyWlLk6GJQsqaUBKTNV-0" />
        <mxCell id="WIyWlLk6GJQsqaUBKTNV-1" parent="WIyWlLk6GJQsqaUBKTNV-0" />
        <mxCell id="WFU3yKl_VeJORFXdtgvQ-7" value="" style="edgeStyle=orthogonalEdgeStyle;rounded=0;orthogonalLoop=1;jettySize=auto;html=1;" parent="WIyWlLk6GJQsqaUBKTNV-1" source="WIyWlLk6GJQsqaUBKTNV-3" target="WFU3yKl_VeJORFXdtgvQ-5" edge="1">
          <mxGeometry relative="1" as="geometry" />
        </mxCell>
        <mxCell id="WIyWlLk6GJQsqaUBKTNV-3" value="User inputs summoner name" style="rounded=1;whiteSpace=wrap;html=1;fontSize=12;glass=0;strokeWidth=1;shadow=0;" parent="WIyWlLk6GJQsqaUBKTNV-1" vertex="1">
          <mxGeometry x="140" y="50" width="120" height="40" as="geometry" />
        </mxCell>
        <mxCell id="WIyWlLk6GJQsqaUBKTNV-4" value="Record Exists" style="rounded=0;html=1;jettySize=auto;orthogonalLoop=1;fontSize=11;endArrow=block;endFill=0;endSize=8;strokeWidth=1;shadow=0;labelBackgroundColor=none;edgeStyle=orthogonalEdgeStyle;entryX=0;entryY=0.25;entryDx=0;entryDy=0;exitX=0.5;exitY=1;exitDx=0;exitDy=0;" parent="WIyWlLk6GJQsqaUBKTNV-1" source="WFU3yKl_VeJORFXdtgvQ-5" target="WFU3yKl_VeJORFXdtgvQ-2" edge="1">
          <mxGeometry y="20" relative="1" as="geometry">
            <mxPoint as="offset" />
            <mxPoint x="188.57142857142844" y="300" as="sourcePoint" />
            <Array as="points">
              <mxPoint x="200" y="300" />
            </Array>
          </mxGeometry>
        </mxCell>
        <mxCell id="WIyWlLk6GJQsqaUBKTNV-5" value="Record DNE, API call" style="edgeStyle=orthogonalEdgeStyle;rounded=0;html=1;jettySize=auto;orthogonalLoop=1;fontSize=11;endArrow=block;endFill=0;endSize=8;strokeWidth=1;shadow=0;labelBackgroundColor=none;exitX=1;exitY=0.5;exitDx=0;exitDy=0;" parent="WIyWlLk6GJQsqaUBKTNV-1" source="WFU3yKl_VeJORFXdtgvQ-5" target="WIyWlLk6GJQsqaUBKTNV-7" edge="1">
          <mxGeometry y="10" relative="1" as="geometry">
            <mxPoint as="offset" />
            <mxPoint x="270" y="240" as="sourcePoint" />
          </mxGeometry>
        </mxCell>
        <mxCell id="WFU3yKl_VeJORFXdtgvQ-3" value="" style="edgeStyle=orthogonalEdgeStyle;rounded=0;orthogonalLoop=1;jettySize=auto;html=1;" parent="WIyWlLk6GJQsqaUBKTNV-1" source="WIyWlLk6GJQsqaUBKTNV-7" target="WFU3yKl_VeJORFXdtgvQ-2" edge="1">
          <mxGeometry relative="1" as="geometry" />
        </mxCell>
        <mxCell id="WIyWlLk6GJQsqaUBKTNV-7" value="API_client()&lt;br&gt;get_puuid_by_name" style="rounded=1;whiteSpace=wrap;html=1;fontSize=12;glass=0;strokeWidth=1;shadow=0;" parent="WIyWlLk6GJQsqaUBKTNV-1" vertex="1">
          <mxGeometry x="450" y="190" width="120" height="40" as="geometry" />
        </mxCell>
        <mxCell id="WFU3yKl_VeJORFXdtgvQ-9" value="" style="edgeStyle=orthogonalEdgeStyle;rounded=0;orthogonalLoop=1;jettySize=auto;html=1;" parent="WIyWlLk6GJQsqaUBKTNV-1" source="WFU3yKl_VeJORFXdtgvQ-2" target="WFU3yKl_VeJORFXdtgvQ-8" edge="1">
          <mxGeometry relative="1" as="geometry" />
        </mxCell>
        <mxCell id="WFU3yKl_VeJORFXdtgvQ-2" value="puuid" style="shape=document;whiteSpace=wrap;html=1;boundedLbl=1;" parent="WIyWlLk6GJQsqaUBKTNV-1" vertex="1">
          <mxGeometry x="475" y="290" width="70" height="40" as="geometry" />
        </mxCell>
        <mxCell id="WFU3yKl_VeJORFXdtgvQ-5" value="Query loldb summoner table for summoner name" style="rounded=0;whiteSpace=wrap;html=1;" parent="WIyWlLk6GJQsqaUBKTNV-1" vertex="1">
          <mxGeometry x="140" y="180" width="120" height="60" as="geometry" />
        </mxCell>
        <mxCell id="WFU3yKl_VeJORFXdtgvQ-8" value="Query loldb match_id table for puuid" style="rounded=0;whiteSpace=wrap;html=1;" parent="WIyWlLk6GJQsqaUBKTNV-1" vertex="1">
          <mxGeometry x="450" y="390" width="120" height="60" as="geometry" />
        </mxCell>
        <mxCell id="WFU3yKl_VeJORFXdtgvQ-10" value="No fresh record" style="edgeStyle=orthogonalEdgeStyle;rounded=0;html=1;jettySize=auto;orthogonalLoop=1;fontSize=11;endArrow=block;endFill=0;endSize=8;strokeWidth=1;shadow=0;labelBackgroundColor=none;exitX=1;exitY=0.5;exitDx=0;exitDy=0;" parent="WIyWlLk6GJQsqaUBKTNV-1" source="WFU3yKl_VeJORFXdtgvQ-8" target="WFU3yKl_VeJORFXdtgvQ-11" edge="1">
          <mxGeometry y="10" relative="1" as="geometry">
            <mxPoint as="offset" />
            <mxPoint x="570" y="470" as="sourcePoint" />
          </mxGeometry>
        </mxCell>
        <mxCell id="WFU3yKl_VeJORFXdtgvQ-19" style="edgeStyle=orthogonalEdgeStyle;rounded=0;orthogonalLoop=1;jettySize=auto;html=1;entryX=0.5;entryY=0;entryDx=0;entryDy=0;" parent="WIyWlLk6GJQsqaUBKTNV-1" source="WFU3yKl_VeJORFXdtgvQ-11" target="WFU3yKl_VeJORFXdtgvQ-18" edge="1">
          <mxGeometry relative="1" as="geometry">
            <Array as="points" />
          </mxGeometry>
        </mxCell>
        <mxCell id="WFU3yKl_VeJORFXdtgvQ-11" value="API_client()&lt;br&gt;get_match_ids_by_puuid&lt;br&gt;[up to 20 per call]" style="rounded=1;whiteSpace=wrap;html=1;fontSize=12;glass=0;strokeWidth=1;shadow=0;" parent="WIyWlLk6GJQsqaUBKTNV-1" vertex="1">
          <mxGeometry x="717.5" y="410" width="180" height="50" as="geometry" />
        </mxCell>
        <mxCell id="WFU3yKl_VeJORFXdtgvQ-12" value="Fresh Record" style="rounded=0;html=1;jettySize=auto;orthogonalLoop=1;fontSize=11;endArrow=block;endFill=0;endSize=8;strokeWidth=1;shadow=0;labelBackgroundColor=none;edgeStyle=orthogonalEdgeStyle;exitX=0.5;exitY=1;exitDx=0;exitDy=0;entryX=0;entryY=0.5;entryDx=0;entryDy=0;" parent="WIyWlLk6GJQsqaUBKTNV-1" source="WFU3yKl_VeJORFXdtgvQ-8" target="WFU3yKl_VeJORFXdtgvQ-18" edge="1">
          <mxGeometry x="0.0925" y="20" relative="1" as="geometry">
            <mxPoint as="offset" />
            <mxPoint x="510" y="500" as="sourcePoint" />
            <mxPoint x="790" y="510" as="targetPoint" />
            <Array as="points">
              <mxPoint x="510" y="520" />
            </Array>
          </mxGeometry>
        </mxCell>
        <mxCell id="WFU3yKl_VeJORFXdtgvQ-22" value="" style="edgeStyle=orthogonalEdgeStyle;rounded=0;orthogonalLoop=1;jettySize=auto;html=1;" parent="WIyWlLk6GJQsqaUBKTNV-1" source="WFU3yKl_VeJORFXdtgvQ-18" target="WFU3yKl_VeJORFXdtgvQ-21" edge="1">
          <mxGeometry relative="1" as="geometry" />
        </mxCell>
        <mxCell id="WFU3yKl_VeJORFXdtgvQ-18" value="summoner&#39;s&amp;nbsp; most recent match_ids" style="shape=document;whiteSpace=wrap;html=1;boundedLbl=1;" parent="WIyWlLk6GJQsqaUBKTNV-1" vertex="1">
          <mxGeometry x="755" y="505" width="105" height="70" as="geometry" />
        </mxCell>
        <mxCell id="WFU3yKl_VeJORFXdtgvQ-25" value="" style="edgeStyle=orthogonalEdgeStyle;rounded=0;orthogonalLoop=1;jettySize=auto;html=1;entryX=0;entryY=0.5;entryDx=0;entryDy=0;" parent="WIyWlLk6GJQsqaUBKTNV-1" source="WFU3yKl_VeJORFXdtgvQ-21" target="WFU3yKl_VeJORFXdtgvQ-27" edge="1">
          <mxGeometry relative="1" as="geometry">
            <mxPoint x="947.5" y="645" as="targetPoint" />
          </mxGeometry>
        </mxCell>
        <mxCell id="WFU3yKl_VeJORFXdtgvQ-26" value="match not in db" style="edgeLabel;html=1;align=center;verticalAlign=middle;resizable=0;points=[];" parent="WFU3yKl_VeJORFXdtgvQ-25" vertex="1" connectable="0">
          <mxGeometry x="-0.4333" y="-1" relative="1" as="geometry">
            <mxPoint x="32" y="-1" as="offset" />
          </mxGeometry>
        </mxCell>
        <mxCell id="J4yGnhhiWsWqU8tHoU_T-5" value="" style="edgeStyle=orthogonalEdgeStyle;rounded=0;orthogonalLoop=1;jettySize=auto;html=1;" parent="WIyWlLk6GJQsqaUBKTNV-1" source="WFU3yKl_VeJORFXdtgvQ-21" target="J4yGnhhiWsWqU8tHoU_T-2" edge="1">
          <mxGeometry relative="1" as="geometry" />
        </mxCell>
        <mxCell id="WFU3yKl_VeJORFXdtgvQ-21" value="Query loldb match table for match_ids" style="rounded=0;whiteSpace=wrap;html=1;" parent="WIyWlLk6GJQsqaUBKTNV-1" vertex="1">
          <mxGeometry x="747.5" y="625" width="120" height="60" as="geometry" />
        </mxCell>
        <mxCell id="J4yGnhhiWsWqU8tHoU_T-6" style="edgeStyle=orthogonalEdgeStyle;rounded=0;orthogonalLoop=1;jettySize=auto;html=1;entryX=1;entryY=0.5;entryDx=0;entryDy=0;" parent="WIyWlLk6GJQsqaUBKTNV-1" source="WFU3yKl_VeJORFXdtgvQ-27" target="J4yGnhhiWsWqU8tHoU_T-2" edge="1">
          <mxGeometry relative="1" as="geometry">
            <Array as="points">
              <mxPoint x="1177.5" y="825" />
            </Array>
          </mxGeometry>
        </mxCell>
        <mxCell id="WFU3yKl_VeJORFXdtgvQ-27" value="API_client()&lt;br&gt;get_{match,match_timeline}_by_puuid" style="rounded=1;whiteSpace=wrap;html=1;fontSize=12;glass=0;strokeWidth=1;shadow=0;" parent="WIyWlLk6GJQsqaUBKTNV-1" vertex="1">
          <mxGeometry x="1057.5" y="630" width="250" height="50" as="geometry" />
        </mxCell>
        <mxCell id="J4yGnhhiWsWqU8tHoU_T-8" value="" style="edgeStyle=orthogonalEdgeStyle;rounded=0;orthogonalLoop=1;jettySize=auto;html=1;" parent="WIyWlLk6GJQsqaUBKTNV-1" source="J4yGnhhiWsWqU8tHoU_T-2" target="J4yGnhhiWsWqU8tHoU_T-7" edge="1">
          <mxGeometry relative="1" as="geometry" />
        </mxCell>
        <mxCell id="J4yGnhhiWsWqU8tHoU_T-2" value="match summaries [10]" style="shape=document;whiteSpace=wrap;html=1;boundedLbl=1;" parent="WIyWlLk6GJQsqaUBKTNV-1" vertex="1">
          <mxGeometry x="700" y="765" width="215" height="120" as="geometry" />
        </mxCell>
        <mxCell id="J4yGnhhiWsWqU8tHoU_T-10" value="" style="edgeStyle=orthogonalEdgeStyle;rounded=0;orthogonalLoop=1;jettySize=auto;html=1;" parent="WIyWlLk6GJQsqaUBKTNV-1" source="J4yGnhhiWsWqU8tHoU_T-7" target="J4yGnhhiWsWqU8tHoU_T-9" edge="1">
          <mxGeometry relative="1" as="geometry" />
        </mxCell>
        <mxCell id="J4yGnhhiWsWqU8tHoU_T-7" value="format data" style="whiteSpace=wrap;html=1;" parent="WIyWlLk6GJQsqaUBKTNV-1" vertex="1">
          <mxGeometry x="460" y="780" width="120" height="60" as="geometry" />
        </mxCell>
        <mxCell id="J4yGnhhiWsWqU8tHoU_T-12" value="" style="edgeStyle=orthogonalEdgeStyle;rounded=0;orthogonalLoop=1;jettySize=auto;html=1;" parent="WIyWlLk6GJQsqaUBKTNV-1" source="J4yGnhhiWsWqU8tHoU_T-9" edge="1">
          <mxGeometry relative="1" as="geometry">
            <mxPoint x="160" y="640" as="targetPoint" />
          </mxGeometry>
        </mxCell>
        <mxCell id="J4yGnhhiWsWqU8tHoU_T-9" value="display with html, css" style="whiteSpace=wrap;html=1;" parent="WIyWlLk6GJQsqaUBKTNV-1" vertex="1">
          <mxGeometry x="100" y="710" width="120" height="60" as="geometry" />
        </mxCell>
        <mxCell id="J4yGnhhiWsWqU8tHoU_T-13" value="User" style="rounded=1;whiteSpace=wrap;html=1;fontSize=12;glass=0;strokeWidth=1;shadow=0;" parent="WIyWlLk6GJQsqaUBKTNV-1" vertex="1">
          <mxGeometry x="100" y="600" width="120" height="40" as="geometry" />
        </mxCell>
        <mxCell id="7CZmsTzSo1x0_-t3ZANs-1" value="PostgreSQL" style="swimlane;whiteSpace=wrap;html=1;" vertex="1" parent="WIyWlLk6GJQsqaUBKTNV-1">
          <mxGeometry x="340" y="1020" width="260" height="260" as="geometry" />
        </mxCell>
        <mxCell id="7CZmsTzSo1x0_-t3ZANs-12" value="loldb" style="swimlane;whiteSpace=wrap;html=1;" vertex="1" parent="7CZmsTzSo1x0_-t3ZANs-1">
          <mxGeometry x="30" y="40" width="200" height="200" as="geometry" />
        </mxCell>
        <mxCell id="7CZmsTzSo1x0_-t3ZANs-13" value="PostgreSQL" style="swimlane;whiteSpace=wrap;html=1;" vertex="1" parent="WIyWlLk6GJQsqaUBKTNV-1">
          <mxGeometry x="-180" y="290" width="260" height="260" as="geometry" />
        </mxCell>
        <mxCell id="7CZmsTzSo1x0_-t3ZANs-14" value="loldb" style="swimlane;whiteSpace=wrap;html=1;" vertex="1" parent="7CZmsTzSo1x0_-t3ZANs-13">
          <mxGeometry x="30" y="40" width="200" height="200" as="geometry" />
        </mxCell>
        <mxCell id="7CZmsTzSo1x0_-t3ZANs-15" value="match" style="shape=document;whiteSpace=wrap;html=1;boundedLbl=1;" vertex="1" parent="7CZmsTzSo1x0_-t3ZANs-14">
          <mxGeometry x="40" y="60" width="120" height="80" as="geometry" />
        </mxCell>
      </root>
    </mxGraphModel>
  </diagram>
</mxfile>
